LIKE THIS TORRENT? COME AND JOIN HTTP://TORRENTZONE.NET - MORE MOVIES, FASTER SPEEDS, SSL DOWNLOADS, AND NO FAKES

**WE ARE CURRENTLY SEEKING HIGH SPEED UPLOADERS - 100 MBIT SERVER OR BETTER - SCENE ACCOUNTS HIGHLY PREFERRED. FILL OUT APPLICATION ON SITE OR CONTACT STAFF FOR MORE DETAILS**

-------------------------------------------------------------------------------------

Toy Story 3.2010.CAM.XVID.LU


************************************





TiTLE......[ Toy Story 3
YEAR.......[ 2010
GENRE......[ Animation | Adventure | Comedy | Family | Fantasy
RUNTiME....[ 1:15:10
iMDB RATE..[ User Rating: 9.5/10   1,701 votes
iMDB URL...[ http://www.imdb.com/title/tt0435761/
Language...[ English

*********************************************


General
Complete name : Toy_Story-3.CAM.LU.avi
Format : AVI
Format/Info : Audio Video Interleave
File size : 1.33 GiB
Duration : 1h 34mn
Overall bit rate : 2 025 Kbps
Writing library : VirtualDub build 32706/release

Video
ID : 0
Format : MPEG-4 Visual
Format profile : Advanced Simple@L5
Format settings, BVOP : Yes
Format settings, QPel : No
Format settings, GMC : No warppoints
Format settings, Matrix : Default (H.263)
Muxing mode : Packed bitstream
Codec ID : XVID
Codec ID/Hint : XviD
Duration : 1h 34mn
Bit rate : 1 887 Kbps
Width : 720 pixels
Height : 360 pixels
Display aspect ratio : 2.000
Frame rate : 25.000 fps
Resolution : 8 bits
Colorimetry : 4:2:0
Scan type : Progressive
Bits/(Pixel*Frame) : 0.291
Stream size : 1.24 GiB (93%)
Writing library : XviD 1.2.1 (UTC 2008-12-04)

Audio
ID : 1
Format : MPEG Audio
Format version : Version 1
Format profile : Layer 3
Mode : Joint stereo
Format_Settings_ModeExtension : MS Stereo
Codec ID : 55
Codec ID/Hint : MP3
Duration : 1h 34mn
Bit rate mode : Constant
Bit rate : 128 Kbps
Channel(s) : 2 channels
Sampling rate : 48.0 KHz
Stream size : 86.2 MiB (6%)
Alignment : Split accross interleaves
Interleave, duration : 40 ms (1.00 video frame)
Interleave, preload duration : 500 ms

Notes

Didnt take out the flicker but not too bad, figure sence this as
good cam audio i think, so help it gets things going.

Thanks everyone that releases the vids helps everyone.

******************************************************






Tom Hanks ... Woody (voice)

Tim Allen ... Buzz Lightyear (voice)

Joan Cusack ... Jessie (voice)

Ned Beatty ... Lotso (voice)

Don Rickles ... Mr. Potato Head (voice)

Michael Keaton ... Ken (voice)

Wallace Shawn ... Rex (voice)

John Ratzenberger ... Hamm (voice)
Estelle Harris ... Mrs. Potato Head (voice)

John Morris ... Andy (voice)

Jodi Benson ... Barbie (voice)

Emily Hahn ... Bonnie (voice)

Laurie Metcalf ... Andy's Mom (voice)
Blake Clark ... Slinky Dog (voice)
Teddy Newton ... Chatter Telephone (voice)






Woody, Buzz and the whole gang are back. As their owner Andy prepares to depart for college, his loyal toys find themselves in daycare where untamed tots with their sticky little fingers do not play nice. So, it's all for one and one for all as they join Barbie's counterpart Ken, a thespian hedgehog named Mr. Pricklepants and a pink, strawberry-scented teddy bear called Lots-o'-Huggin' Bear to plan their great escape.